<svg width="18" height="18" viewBox="0 0 18 18" fill="none" xmlns="http://www.w3.org/2000/svg">
<path d="M17.6053 7.32177L10.0196 0.342963C9.77302 0.116087 9.44827 -0.00669442 9.11325 0.000281799C8.77824 0.00725802 8.45889 0.143452 8.22194 0.380397L1.24536 7.35702L0.887329 7.71501V18H7.61017V11.5827H11.2772V18H18V7.68495L17.6053 7.32177ZM9.13953 1.22236C9.15031 1.22236 9.14366 1.22469 9.13904 1.22923C9.13426 1.22469 9.12876 1.22236 9.13953 1.22236ZM16.7777 16.7777H12.4995V11.5827C12.4995 11.2586 12.3707 10.9477 12.1415 10.7184C11.9123 10.4892 11.6014 10.3604 11.2772 10.3604H7.61017C7.28598 10.3604 6.97508 10.4892 6.74585 10.7184C6.51661 10.9477 6.38783 11.2586 6.38783 11.5827V16.7777H2.10966V8.22133L9.13953 1.2447C9.14003 1.24424 9.14007 1.24382 9.14045 1.24337L16.7777 8.22133V16.7777Z" fill="#E3E3E3"/>
</svg>
