<svg width="19" height="18" viewBox="0 0 19 18" fill="none" xmlns="http://www.w3.org/2000/svg">
<path d="M9.96069 18C7.4266 18 5.0489 17.0179 3.2655 15.2345C1.48211 13.4512 0.5 11.0734 0.5 8.53925C0.499622 6.7911 0.983664 5.07704 1.8984 3.58732C2.81314 2.0976 4.12279 0.89049 5.68198 0.0999747C5.8424 0.0182024 6.02334 -0.0145103 6.20223 0.00591999C6.38112 0.0263503 6.55003 0.0990186 6.68787 0.214854C6.82571 0.330689 6.92639 0.484559 6.97732 0.657256C7.02825 0.829953 7.02719 1.01383 6.97427 1.18593C6.52934 2.62304 6.48561 4.15442 6.84781 5.61457C7.21 7.07473 7.96434 8.40815 9.02931 9.47073C9.79357 10.2407 10.703 10.8514 11.7048 11.2675C12.7067 11.6836 13.7812 11.8969 14.866 11.8949C15.6959 11.8955 16.5212 11.7711 17.314 11.5257C17.4861 11.4727 17.67 11.4716 17.8427 11.5225C18.0154 11.5735 18.1693 11.6741 18.2852 11.812C18.401 11.9499 18.4737 12.1188 18.4941 12.2977C18.5145 12.4766 18.4818 12.6576 18.4 12.818C17.6094 14.3772 16.4023 15.6868 14.9126 16.6016C13.4229 17.5163 11.7088 18.0004 9.96069 18ZM5.64925 1.49144C4.44017 2.22709 3.44141 3.26232 2.74956 4.49698C2.05772 5.73165 1.69622 7.12396 1.70003 8.53925C1.70003 13.0942 5.40572 16.8 9.96069 16.8C11.376 16.8038 12.7683 16.4423 14.003 15.7505C15.2376 15.0586 16.2729 14.0599 17.0085 12.8508C16.306 13.0134 15.5872 13.0953 14.8661 13.095C13.6236 13.0974 12.393 12.8533 11.2455 12.3769C10.0979 11.9004 9.05632 11.2011 8.18089 10.3194C7.04362 9.18426 6.21438 7.77806 5.77142 6.2335C5.32847 4.68895 5.28642 3.05699 5.64925 1.49167V1.49144Z" fill="black"/>
</svg>
