<svg width="18" height="18" viewBox="0 0 18 18" fill="none" xmlns="http://www.w3.org/2000/svg">
<g clip-path="url(#clip0_37_85)">
<path d="M9 13.875C10.2929 13.875 11.5329 13.3614 12.4471 12.4471C13.3614 11.5329 13.875 10.2929 13.875 9C13.875 7.70707 13.3614 6.46709 12.4471 5.55285C11.5329 4.63861 10.2929 4.125 9 4.125C7.70707 4.125 6.46709 4.63861 5.55285 5.55285C4.63861 6.46709 4.125 7.70707 4.125 9C4.125 10.2929 4.63861 11.5329 5.55285 12.4471C6.46709 13.3614 7.70707 13.875 9 13.875Z" stroke="#E3E3E3" stroke-width="1.5" stroke-linecap="round" stroke-linejoin="round"/>
<path d="M14.355 14.355L14.2575 14.2575M14.2575 3.7425L14.355 3.645M3.645 14.355L3.7425 14.2575M9 1.56V1.5M9 16.5V16.44M1.56 9H1.5M16.5 9H16.44M3.7425 3.7425L3.645 3.645" stroke="#E3E3E3" stroke-width="2" stroke-linecap="round" stroke-linejoin="round"/>
</g>
<defs>
<clipPath id="clip0_37_85">
<rect width="18" height="18" fill="white"/>
</clipPath>
</defs>
</svg>
